<svg width="802" height="761" viewBox="0 0 802 761" fill="none" xmlns="http://www.w3.org/2000/svg">
<path d="M405.685 301.607L396.232 299.932C395.766 299.84 395.344 299.597 395.035 299.242C394.725 298.886 394.545 298.439 394.525 297.971L394.398 293.766C394.82 222.165 394.957 150.542 394.809 78.8978C394.809 71.7734 394.324 65.4395 393.355 59.896C393.275 59.4498 393.099 59.0241 392.837 58.6478C392.575 58.2715 392.234 57.9533 391.837 57.7145C383.343 52.7612 377.947 48.0713 375.649 43.6449C369.811 32.4526 370.137 21.9557 376.629 12.1545C389.592 -7.41635 419.565 -2.19955 427.027 19.5529C432.465 35.4246 422.853 50.569 408.563 57.3983C407.873 57.7183 407.289 58.2306 406.88 58.8749C406.471 59.5192 406.254 60.2684 406.255 61.0342L405.685 301.607ZM382.718 27.4132C382.505 29.6243 382.747 31.8574 383.432 33.985C384.116 36.1126 385.228 38.0931 386.705 39.8134C388.183 41.5336 389.996 42.9599 392.041 44.0108C394.086 45.0618 396.324 45.7168 398.626 45.9384C400.928 46.1601 403.249 45.9441 405.458 45.3028C407.666 44.6614 409.718 43.6073 411.496 42.2006C413.275 40.7938 414.744 39.062 415.822 37.1041C416.9 35.1461 417.564 33.0003 417.777 30.7892C417.99 28.5781 417.747 26.345 417.063 24.2173C416.379 22.0897 415.266 20.1092 413.789 18.389C412.312 16.6687 410.499 15.2424 408.454 14.1915C406.408 13.1406 404.171 12.4856 401.869 12.2639C399.567 12.0422 397.245 12.2582 395.037 12.8996C392.829 13.5409 390.777 14.595 388.998 16.0018C387.22 17.4085 385.75 19.1403 384.672 21.0983C383.595 23.0563 382.931 25.202 382.718 27.4132Z" fill="#5D6D3E"/>
<path d="M394.398 293.765L394.525 297.97C394.546 298.438 394.725 298.885 395.035 299.241C395.345 299.596 395.766 299.839 396.232 299.93L405.686 301.606L406.002 307.835C406.017 308.077 406.101 308.309 406.245 308.505C406.389 308.7 406.586 308.85 406.812 308.937C407.039 309.024 407.286 309.043 407.523 308.994C407.761 308.944 407.979 308.827 408.152 308.657L452.004 263.855C454.476 261.344 455.862 257.949 455.862 254.402V184.813C455.863 183.908 455.655 183.013 455.255 182.197C454.855 181.38 454.273 180.664 453.554 180.102C445.618 173.811 440.116 170.206 436.101 163.44C429.23 151.826 431.464 141.098 442.804 131.254C451.688 123.54 461.426 119.999 472.113 126.164C480.618 131.064 488.364 137.198 489.439 147.663C491.146 164.547 481.408 170.649 469.836 179.628C469.01 180.267 468.343 181.088 467.888 182.026C467.433 182.964 467.201 183.994 467.212 185.034C467.655 220.993 467.855 243.578 467.813 252.79C467.75 263.191 466.453 268.914 458.012 275.585C450.023 281.93 441.782 289.855 433.287 299.361C422.727 311.218 406.255 317.288 406.255 335.816C406.255 362.353 406.107 377.866 405.812 382.356C405.799 382.547 405.834 382.738 405.915 382.912C405.996 383.086 406.119 383.237 406.274 383.351C406.428 383.464 406.609 383.537 406.799 383.562C406.989 383.587 407.183 383.564 407.361 383.494C410.038 382.44 412.178 381.112 413.78 379.51C450.624 342.582 486.983 306.781 522.858 272.107C526.251 268.84 527.906 263.982 527.822 257.532C527.421 219.381 526.894 179.08 526.241 136.629C526.223 135.529 525.897 134.454 525.299 133.527C524.701 132.6 523.856 131.857 522.858 131.381C514.005 127.112 506.006 120.378 504.868 109.565C503.192 93.63 511.697 79.1179 528.106 77.1892C538.73 75.9562 552.388 80.9833 557.036 91.7646C565.446 111.272 553.906 122.528 539.741 132.993C539.22 133.376 538.795 133.878 538.498 134.459C538.202 135.041 538.043 135.686 538.034 136.344C537.718 178.332 537.707 221.362 538.002 265.436C538.034 270.78 535.347 276.091 531.236 280.012C495.973 313.968 464.736 344.531 437.524 371.701C429.852 379.352 421.568 387.119 412.673 395.002C409.954 397.426 407.931 400.641 406.603 404.646C406.456 405.085 406.381 405.544 406.381 406.005V756.51C406.379 757.132 406.231 757.745 405.95 758.3C405.668 758.854 405.26 759.335 404.759 759.704C404.258 760.073 403.678 760.319 403.065 760.423C402.451 760.528 401.822 760.487 401.228 760.304L400.089 759.956C398.492 759.571 397.072 758.657 396.061 757.365C395.051 756.073 394.509 754.479 394.525 752.843C395.263 673.463 395.178 595.043 394.272 517.581C393.829 480.242 396.896 442.681 394.209 403.729C394.105 402.263 393.476 400.891 392.438 399.871L266.54 276.597C265.75 275.826 265.122 274.906 264.693 273.891C264.264 272.875 264.043 271.785 264.042 270.685V137.672C264.041 136.77 263.793 135.887 263.323 135.122C262.854 134.357 262.184 133.74 261.386 133.341C245.578 125.342 237.041 110.071 243.396 92.5867C246.01 85.4834 251.005 80.8357 258.383 78.6436C275.803 73.4268 292.023 79.7186 296.639 98.7203C298.768 107.531 297.219 115.361 291.991 122.212C288.008 127.428 281.336 129.737 276.91 133.847C276.442 134.284 276.07 134.814 275.819 135.402C275.569 135.99 275.445 136.624 275.456 137.261C275.856 175.138 275.666 216.472 274.887 261.263C274.781 267.692 277.542 273.593 283.17 278.968C313.08 307.592 334.168 327.795 346.436 339.578C363.572 356.061 376.988 369.266 386.684 379.194C388.602 381.154 390.499 382.63 392.375 383.62C392.61 383.752 392.876 383.818 393.146 383.813C393.415 383.808 393.68 383.732 393.913 383.591C394.146 383.451 394.339 383.251 394.474 383.013C394.609 382.774 394.681 382.504 394.683 382.229V335.468C394.683 332.352 393.782 329.31 392.09 326.71C386.526 318.205 376.661 312.64 370.97 305.527C366.354 299.793 356.3 289.181 340.808 273.688C334.4 267.281 331.386 258.734 331.765 248.047C332.608 223.765 332.724 202.856 332.113 185.319C332.074 184.234 331.775 183.173 331.241 182.227C330.707 181.281 329.955 180.476 329.046 179.881C325.21 177.415 322.554 175.56 321.079 174.316C306.598 162.144 306.409 136.218 324.557 127.397C354.371 112.853 376.377 143.079 359.62 169.416C356.237 174.727 349.281 177.731 344.665 182.537C344.157 183.064 343.874 183.756 343.875 184.465V255.003C343.875 257.034 344.28 259.046 345.067 260.919C345.855 262.792 347.008 264.489 348.459 265.911L390.826 307.392C390.99 307.56 391.199 307.676 391.428 307.726C391.657 307.776 391.897 307.759 392.119 307.676C392.341 307.593 392.537 307.448 392.683 307.258C392.829 307.067 392.92 306.84 392.944 306.602L394.398 293.765ZM252.82 99.9439C252.256 101.967 252.104 104.085 252.375 106.176C252.646 108.267 253.333 110.29 254.399 112.13C255.464 113.969 256.886 115.59 258.584 116.899C260.281 118.207 262.221 119.179 264.293 119.757C268.476 120.925 272.942 120.422 276.707 118.358C280.472 116.294 283.228 112.839 284.369 108.752C284.934 106.729 285.085 104.611 284.815 102.52C284.544 100.43 283.856 98.4065 282.791 96.5667C281.726 94.7269 280.304 93.1064 278.606 91.7977C276.908 90.489 274.968 89.5177 272.897 88.9393C268.713 87.7713 264.248 88.2745 260.483 90.3382C256.718 92.402 253.961 95.8573 252.82 99.9439ZM548.562 104.696C548.562 100.361 546.84 96.2031 543.775 93.1376C540.709 90.0722 536.552 88.35 532.216 88.35C527.881 88.35 523.724 90.0722 520.658 93.1376C517.593 96.2031 515.871 100.361 515.871 104.696C515.871 109.031 517.593 113.189 520.658 116.254C523.724 119.32 527.881 121.042 532.216 121.042C536.552 121.042 540.709 119.32 543.775 116.254C546.84 113.189 548.562 109.031 548.562 104.696ZM465.343 135.16C461.198 134.042 456.757 134.696 452.997 136.979C449.236 139.263 446.465 142.988 445.292 147.335C444.711 149.488 444.54 151.728 444.789 153.929C445.037 156.13 445.701 158.248 446.742 160.161C447.782 162.075 449.179 163.747 450.853 165.083C452.527 166.418 454.445 167.391 456.498 167.944C460.643 169.063 465.084 168.408 468.844 166.125C472.605 163.842 475.376 160.117 476.549 155.769C477.13 153.617 477.301 151.376 477.052 149.175C476.803 146.975 476.14 144.857 475.099 142.943C474.059 141.029 472.662 139.357 470.988 138.022C469.314 136.686 467.396 135.714 465.343 135.16ZM342.499 136.42C338.448 135.477 334.175 136.241 330.62 138.542C327.065 140.844 324.519 144.496 323.542 148.693C322.565 152.891 323.238 157.292 325.411 160.927C327.585 164.561 331.082 167.133 335.133 168.076C339.183 169.018 343.456 168.255 347.012 165.953C350.567 163.651 353.113 160 354.09 155.802C355.067 151.604 354.394 147.204 352.221 143.569C350.047 139.934 346.55 137.362 342.499 136.42Z" fill="#AB704E"/>
<path d="M532.375 428.706C534.188 429.423 550.439 429.486 581.128 428.896C586.672 428.79 590.856 427.262 593.68 424.311C600.478 417.229 606.232 409.925 612.524 404.108C620.47 396.731 635.583 382.429 657.863 361.204C661.488 357.747 664.839 353.437 667.917 348.273C668.444 347.399 668.614 346.367 668.391 345.395C665.514 332.812 663.016 324.497 670.193 312.04C678.034 298.381 696.087 297.812 708.323 305.874C719.8 313.431 723.246 329.871 716.354 341.791C709.05 354.406 695.392 353.932 683.124 355.924C681.149 356.257 679.267 357.046 677.623 358.232C659.19 371.606 639.367 398.132 614.421 419.252C608.076 424.627 602.122 429.897 596.557 435.061C593.936 437.501 590.49 438.856 586.914 438.855H525.514C523.491 438.855 521.49 439.258 519.628 440.04C517.766 440.822 516.08 441.967 514.67 443.408L492 466.551C491.717 466.851 491.528 467.226 491.455 467.632C491.382 468.037 491.43 468.455 491.591 468.834C491.752 469.213 492.02 469.537 492.362 469.766C492.704 469.995 493.106 470.12 493.518 470.124H661.182C661.707 470.123 662.221 469.981 662.667 469.714C663.113 469.446 663.474 469.063 663.712 468.606C673.829 449.194 683.377 433.575 707.691 446.317C719.231 452.387 725.776 466.962 720.274 479.704C710.188 503.227 681.765 506.325 667.126 485.174C666.541 484.336 665.763 483.653 664.86 483.185C663.956 482.717 662.954 482.477 661.941 482.486C630.177 482.824 584.785 482.771 525.767 482.328C506.07 482.202 493.075 479.767 481.156 481.285C471.765 482.455 450.456 505.029 450.835 516.032C451.214 527.245 451.425 539.629 451.467 553.182C451.474 554.844 450.942 556.464 449.95 557.798C448.958 559.132 447.56 560.108 445.966 560.58L445.745 560.643C445.061 560.847 444.34 560.897 443.635 560.791C442.929 560.686 442.255 560.426 441.661 560.031C441.066 559.636 440.566 559.115 440.196 558.505C439.825 557.895 439.593 557.211 439.516 556.501C438.146 543.96 437.914 529.669 438.821 513.629C439.263 505.63 441.034 501.33 446.63 495.26C455.925 485.247 465.948 475.025 476.698 464.591C497.038 444.841 514.87 427.093 530.193 411.348C536.601 404.772 540.458 400.904 541.765 399.745C552.547 390.323 560.577 379.731 571.169 370.942C581.729 362.184 588.305 352.067 598.897 342.708C599.811 341.914 600.543 340.93 601.045 339.823C601.547 338.715 601.806 337.511 601.806 336.29V270.938C601.804 270.099 601.585 269.274 601.17 268.543C600.755 267.812 600.157 267.199 599.434 266.764C586.06 258.828 576.544 247.889 580.18 231.29C583.341 216.683 598.012 206.945 612.966 210.739C625.012 213.774 637.659 227.528 635.699 240.712C633.96 252.252 624.791 259.05 615.338 266.827C614.656 267.39 614.107 268.096 613.729 268.894C613.352 269.692 613.156 270.563 613.156 271.443V332.78C613.156 335.898 612.43 338.963 611.038 341.728C607.117 349.421 602.238 355.987 596.399 361.425C571.137 384.917 549.29 404.076 531.837 426.777C531.715 426.93 531.631 427.109 531.592 427.301C531.552 427.493 531.559 427.691 531.612 427.879C531.664 428.068 531.761 428.241 531.894 428.385C532.026 428.528 532.191 428.639 532.375 428.706ZM624.38 238.72C624.38 234.083 622.538 229.636 619.259 226.357C615.98 223.078 611.533 221.236 606.896 221.236C604.6 221.236 602.326 221.688 600.205 222.567C598.084 223.445 596.156 224.733 594.533 226.357C592.909 227.98 591.621 229.908 590.743 232.029C589.864 234.15 589.412 236.424 589.412 238.72C589.412 241.016 589.864 243.29 590.743 245.411C591.621 247.532 592.909 249.46 594.533 251.083C596.156 252.707 598.084 253.995 600.205 254.873C602.326 255.752 604.6 256.204 606.896 256.204C611.533 256.204 615.98 254.362 619.259 251.083C622.538 247.804 624.38 243.357 624.38 238.72ZM708.892 328.196C708.892 323.768 707.133 319.522 704.003 316.392C700.872 313.261 696.626 311.502 692.198 311.502C687.771 311.502 683.525 313.261 680.394 316.392C677.263 319.522 675.505 323.768 675.505 328.196C675.505 332.623 677.263 336.869 680.394 340C683.525 343.131 687.771 344.89 692.198 344.89C696.626 344.89 700.872 343.131 704.003 340C707.133 336.869 708.892 332.623 708.892 328.196ZM710.916 470.219C710.916 465.632 709.094 461.233 705.85 457.99C702.607 454.747 698.208 452.924 693.621 452.924C689.034 452.924 684.635 454.747 681.392 457.99C678.149 461.233 676.327 465.632 676.327 470.219C676.327 474.806 678.149 479.205 681.392 482.448C684.635 485.691 689.034 487.513 693.621 487.513C698.208 487.513 702.607 485.691 705.85 482.448C709.094 479.205 710.916 474.806 710.916 470.219Z" fill="#5D6D3E"/>
<path d="M199.038 339.546C194.948 339.673 191.513 341.328 188.731 344.51L187.086 271.001C187.056 269.963 186.78 268.947 186.279 268.034C185.779 267.122 185.07 266.34 184.209 265.753C177.475 261.2 169.16 253.232 167.199 245.012C164.196 232.365 169.792 216.62 183.261 212.952C195.781 209.506 209.598 210.075 217.565 222.501C229.769 241.502 217.786 256.742 201.504 266.353C201.02 266.643 200.621 267.048 200.344 267.53C200.066 268.013 199.921 268.555 199.923 269.104L199.038 339.546ZM210.609 237.898C210.609 233.571 208.891 229.422 205.831 226.362C202.771 223.303 198.622 221.584 194.295 221.584C189.968 221.584 185.819 223.303 182.759 226.362C179.7 229.422 177.981 233.571 177.981 237.898C177.981 242.225 179.7 246.375 182.759 249.434C185.819 252.494 189.968 254.212 194.295 254.212C198.622 254.212 202.771 252.494 205.831 249.434C208.891 246.375 210.609 242.225 210.609 237.898Z" fill="#AB704E"/>
<path d="M188.73 344.511C191.513 341.328 194.948 339.674 199.038 339.547C211.621 351.435 222.244 364.936 234.765 376.254C240.856 381.756 246.758 387.457 252.47 393.359C278.48 420.212 294.531 436.632 300.623 442.618C315.008 456.814 324.557 464.719 333.125 475.848C334.866 478.113 336.909 480.114 339.195 481.792C349.471 489.38 359.968 495.956 361.643 508.508C363.54 522.767 365.184 546.764 359.778 562.541C359.583 563.124 359.229 563.641 358.756 564.033C358.282 564.424 357.708 564.676 357.099 564.758C356.49 564.84 355.871 564.75 355.31 564.498C354.75 564.246 354.271 563.842 353.929 563.332C347.953 554.605 350.641 531.367 351.241 516.033C351.386 512.182 350.502 508.372 348.68 504.998C343.369 495.197 335.591 487.683 325.347 482.456C324.052 481.808 322.658 481.411 321.237 481.286C306.841 480.126 293.266 479.968 280.514 480.811C235.176 483.815 193.03 482.898 138.965 482.234C137.091 482.213 135.27 482.876 133.843 484.1C131.862 485.828 129.354 488.189 126.319 491.182C117.087 500.287 105.104 502.026 93.1209 496.43C73.8346 487.388 72.6331 459.407 89.1688 447.709C105.863 435.915 124.769 444.895 132.958 461.399C133.633 462.748 134.971 465.267 136.974 468.955C137.146 469.28 137.401 469.552 137.713 469.741C138.025 469.93 138.382 470.03 138.744 470.03H308.97C309.339 470.037 309.701 469.931 310.01 469.728C310.318 469.525 310.558 469.234 310.698 468.892C310.838 468.551 310.872 468.175 310.795 467.814C310.718 467.452 310.533 467.123 310.266 466.868L286.363 443.504C283.872 441.052 280.511 439.678 277.005 439.678C241.931 439.657 222.539 439.773 218.83 440.026C203.78 441.037 202.073 432.659 193.125 424.628C171.31 405.131 148.788 383.516 125.56 359.782C123.306 357.488 120.263 356.142 117.055 356.02C111.269 355.83 104.598 355.609 98.8436 353.775C81.4543 348.147 75.7948 326.3 85.2167 312.04C93.4687 299.647 114.494 298.129 125.591 307.677C135.519 316.214 136.563 331.2 132.832 343.847C132.504 344.928 132.414 346.064 132.567 347.178C132.72 348.292 133.112 349.356 133.717 350.297C136.289 354.407 139.123 357.906 142.222 360.794C165.028 381.956 186.981 403.508 208.08 425.45C211.147 428.675 216.206 429.719 221.327 429.687C240.972 429.476 256.496 429.255 267.899 429.023C268.109 429.016 268.312 428.949 268.483 428.828C268.655 428.708 268.787 428.54 268.865 428.345C268.942 428.15 268.961 427.937 268.918 427.731C268.876 427.526 268.774 427.338 268.626 427.189L188.73 344.511ZM98.6302 314.912C95.0858 317.214 92.6517 320.908 91.8635 325.181C91.0752 329.454 91.9974 333.956 94.427 337.698C95.63 339.55 97.167 341.16 98.9501 342.435C100.733 343.711 102.727 344.626 104.819 345.13C106.911 345.634 109.059 345.717 111.141 345.373C113.222 345.029 115.197 344.265 116.952 343.125C120.497 340.823 122.931 337.13 123.719 332.857C124.507 328.584 123.585 324.081 121.155 320.34C119.952 318.487 118.415 316.878 116.632 315.602C114.849 314.327 112.855 313.411 110.763 312.907C108.672 312.403 106.524 312.321 104.442 312.665C102.36 313.009 100.385 313.773 98.6302 314.912ZM124.011 471.326C124.011 466.605 122.135 462.078 118.797 458.74C115.459 455.402 110.931 453.526 106.21 453.526C101.489 453.526 96.9618 455.402 93.6236 458.74C90.2854 462.078 88.41 466.605 88.41 471.326C88.41 476.047 90.2854 480.575 93.6236 483.913C96.9618 487.251 101.489 489.127 106.21 489.127C110.931 489.127 115.459 487.251 118.797 483.913C122.135 480.575 124.011 476.047 124.011 471.326Z" fill="#5D6D3E"/>
<path d="M233.437 306.728C233.668 306.485 233.945 306.29 234.252 306.155C234.559 306.02 234.89 305.948 235.226 305.942C235.561 305.936 235.894 305.997 236.206 306.121C236.518 306.245 236.802 306.43 237.041 306.665L355.32 420.897C363.307 428.611 370.744 436.237 375.997 442.1C381.25 447.964 383.888 451.584 383.332 452.166L379.791 455.865C379.206 456.417 375.483 453.891 369.438 448.842C363.393 443.792 355.519 436.631 347.542 428.928L229.263 314.696C228.782 314.23 228.505 313.592 228.493 312.922C228.481 312.253 228.735 311.605 229.2 311.123L233.437 306.728Z" fill="#AB704E"/>
<path d="M571.548 311.787C571.666 311.911 571.732 312.075 571.732 312.245C571.732 312.416 571.666 312.58 571.548 312.704L487.068 395.762C478.938 403.75 470.847 411.616 463.263 418.905C455.678 426.193 448.751 432.759 442.882 438.223C437.013 443.686 432.318 447.938 429.07 450.733C425.823 453.528 424.086 454.81 423.96 454.506L419.534 450.016C419.289 449.831 420.644 448.077 423.522 444.854C426.4 441.632 430.744 437.005 436.305 431.239C441.866 425.472 448.534 418.68 455.927 411.252C463.32 403.824 471.291 395.906 479.385 387.952L563.897 304.895C564.024 304.781 564.191 304.721 564.362 304.726C564.532 304.732 564.694 304.804 564.814 304.926L571.548 311.787Z" fill="#5D6D3E"/>
<path d="M741.931 527.32C742.46 527.328 742.976 527.173 743.407 526.878C743.838 526.583 744.162 526.163 744.334 525.676C750.594 507.75 771.904 499.814 787.997 509.52C808.105 521.629 805.955 548.599 785.405 558.937C765.549 568.96 754.863 555.807 744.555 541.169C743.941 540.289 743.124 539.569 742.172 539.069C741.221 538.568 740.163 538.302 739.086 538.291C649.905 537.659 581.56 537.438 534.05 537.627C524.122 537.659 519.222 540.441 512.045 547.492C496.363 562.9 478.109 581.501 457.284 603.296C452.162 608.671 450.771 614.868 450.803 622.835C450.95 672.136 451.066 716.115 451.151 754.772C451.149 755.533 450.98 756.284 450.658 756.972C450.335 757.661 449.866 758.269 449.284 758.755C448.702 759.241 448.02 759.592 447.288 759.783C446.556 759.975 445.792 760.002 445.049 759.863L444.574 759.768C442.869 759.458 441.325 758.561 440.211 757.233C439.096 755.905 438.481 754.23 438.472 752.496C437.945 684.983 437.798 641.457 438.03 621.918C438.156 612.528 439.958 605.825 446.535 598.617C454.945 589.427 464.282 580.131 474.547 570.73C487.088 559.201 499.714 546.638 512.424 533.043C514.979 530.323 518.294 528.429 521.941 527.605C527.484 526.34 534.293 525.824 542.365 526.056C570.315 526.857 615.896 527.194 679.109 527.067C712.749 527.004 733.69 527.089 741.931 527.32ZM789.515 533.391C789.515 528.997 787.769 524.783 784.662 521.676C781.555 518.569 777.341 516.824 772.947 516.824C768.554 516.824 764.34 518.569 761.233 521.676C758.126 524.783 756.38 528.997 756.38 533.391C756.38 537.785 758.126 541.999 761.233 545.106C764.34 548.213 768.554 549.958 772.947 549.958C777.341 549.958 781.555 548.213 784.662 545.106C787.769 541.999 789.515 537.785 789.515 533.391Z" fill="#AB704E"/>
<path d="M355.857 759.229L355.415 759.071C354.012 758.58 352.796 757.665 351.935 756.453C351.074 755.241 350.611 753.792 350.609 752.305C350.883 693.097 350.725 649.086 350.135 620.273C350.008 613.907 347.384 607.921 342.262 602.314C327.676 586.295 312.764 570.413 297.524 554.668C286.174 542.969 283.138 537.152 267.267 537.31C203.211 537.985 134.117 538.533 59.9864 538.954C59.0219 538.964 58.0769 539.226 57.245 539.714C56.4131 540.202 55.7233 540.9 55.2438 541.736C47.5925 555.237 33.0488 565.006 18.1572 560.39C1.14733 555.079 -4.29081 534.465 3.45533 519.162C9.43093 507.337 24.0379 503.037 35.7678 508.381C44.6205 512.406 51.0704 518.15 55.1173 525.612C55.404 526.128 55.8218 526.559 56.3276 526.859C56.8334 527.159 57.4088 527.318 57.9945 527.319C181.785 527.024 252.354 526.771 269.701 526.56C278.912 526.434 286.374 529.364 292.086 535.35C310.318 554.467 330.806 575.04 353.549 597.066C358.271 601.661 360.705 608.912 360.853 618.818C361.422 662.682 361.422 708.305 360.853 755.688C360.844 756.284 360.694 756.87 360.416 757.398C360.138 757.926 359.74 758.381 359.253 758.726C358.767 759.071 358.206 759.296 357.616 759.383C357.025 759.471 356.423 759.418 355.857 759.229ZM43.0081 533.484C43.0081 529.225 41.3159 525.139 38.3038 522.127C35.2917 519.115 31.2065 517.423 26.9467 517.423C22.687 517.423 18.6017 519.115 15.5896 522.127C12.5775 525.139 10.8853 529.225 10.8853 533.484C10.8853 537.744 12.5775 541.829 15.5896 544.841C18.6017 547.854 22.687 549.546 26.9467 549.546C31.2065 549.546 35.2917 547.854 38.3038 544.841C41.3159 541.829 43.0081 537.744 43.0081 533.484Z" fill="#AB704E"/>
</svg>
